:SAMPLES-PER-SECOND 30
:FRAME-RANGE 1-1770
:FULLY-SPECIFIED
:DEGREES
1605
root  -67.5831 36.4679 -22.5049 -178.036 -20.2379 -178.341
RightUpLeg  -30.5597 -15.5082 12.3771
RightLeg  41.1969 -12.7727 -12.0011
RightFoot  -15.8141 -0.289784 -4.68186
RightToes  6.35937e-011 1.2921e-014 -6.02303e-014
Spine  6.82538 -5.03136 6.66049
Spine1  -0.770915 -5.61435 8.44734
HEad  -10.1139 -41.4512 5.57361
LeftShoulder1  1.90294 -1.53786 -31.7091
LeftArm  29.3351 -4.56346 -38.6775
LeftForeArm  0.614504 -16.6104 -10.7098
LeftHand  0.379385 -2.71621 -5.23146
RightShoulder  5.51243 6.19468 49.8104
RightArm  11.0949 0.521936 12.8231
RightForeArm  18.2081 -1.849 17.5372
RightHand  0.247309 3.2957 3.06553
LeftUpLeg  0.300409 16.2239 10.8134
LeftLeg  55.4151 1.95605 3.54631
LeftFoot  14.4152 2.59389 -11.7028
LeftToes  3.18074e-010 1.39432e-010 -7.71186e-011
1606
root  -68.1054 36.6305 -23.6536 -178.357 -18.7765 -178.147
RightUpLeg  -27.8088 -15.3194 11.7304
RightLeg  41.1491 -11.9537 -11.2696
RightFoot  -17.4714 -0.319355 -3.75734
RightToes  6.35937e-011 1.2921e-014 -6.02303e-014
Spine  7.4043 -4.71694 7.57739
Spine1  -0.499362 -5.01511 8.06805
HEad  -9.82349 -42.2258 6.69314
LeftShoulder1  1.87872 -1.49129 -31.575
LeftArm  30.0962 -3.44584 -38.6728
LeftForeArm  0.740801 -16.2606 -11.0724
LeftHand  0.409887 -2.72505 -5.66137
RightShoulder  5.94352 6.86097 50.2451
RightArm  12.8672 1.4797 13.1604
RightForeArm  16.441 1.1624 17.2278
RightHand  0.201169 3.17803 2.49176
LeftUpLeg  -5.83966 15.5392 10.4242
LeftLeg  62.8812 1.33867 3.46145
LeftFoot  9.73003 2.05268 -11.329
LeftToes  3.18074e-010 1.39432e-010 -7.71186e-011
1607
root  -68.6327 37.0191 -24.885 -178.449 -16.1795 -178.76
RightUpLeg  -23.9764 -14.1926 10.0664
RightLeg  39.3595 -10.8589 -9.69559
RightFoot  -18.3265 -0.288679 -2.69921
RightToes  6.35937e-011 1.2921e-014 -6.02303e-014
Spine  7.51823 -3.96966 7.90014
Spine1  -0.404826 -3.99487 6.61779
HEad  -8.51692 -42.7673 6.82352
LeftShoulder1  1.82284 -1.36803 -31.3772
LeftArm  28.8804 -2.12879 -38.332
LeftForeArm  1.8323 -15.2753 -11.8941
LeftHand  0.436271 -2.83027 -5.95254
RightShoulder  6.5275 7.80642 50.5601
RightArm  17.6462 2.33133 13.9636
RightForeArm  14.496 4.84351 16.5598
RightHand  0.157695 3.38079 1.8438
LeftUpLeg  -10.5946 16.3878 9.43359
LeftLeg  65.3812 0.620461 2.16144
LeftFoot  8.19873 1.78185 -10.6163
LeftToes  3.18074e-010 1.39432e-010 -7.71186e-011
1608
root  -69.1908 37.4264 -26.1251 -178.582 -13.3095 -179.254
RightUpLeg  -20.0141 -13.0088 8.41092
RightLeg  37.0657 -9.77959 -8.1227
RightFoot  -18.6829 -0.240958 -1.78636
RightToes  6.35937e-011 1.2921e-014 -6.02303e-014
Spine  7.5251 -3.36211 8.44118
Spine1  -0.430866 -3.1077 5.00975
HEad  -6.80517 -42.8548 6.18225
LeftShoulder1  1.75692 -1.18718 -31.4125
LeftArm  26.6693 -0.17686 -37.425
LeftForeArm  2.32616 -14.301 -12.6368
LeftHand  0.445531 -2.70325 -6.1895
RightShoulder  7.04984 8.71477 50.5423
RightArm  23.1183 3.22154 15.3613
RightForeArm  12.1838 8.44868 15.3744
RightHand  0.149662 3.85599 1.61501
LeftUpLeg  -14.8023 16.9516 8.28673
LeftLeg  64.7644 -0.0887907 0.450368
LeftFoot  5.52491 1.48818 -10.2447
LeftToes  3.18074e-010 1.39432e-010 -7.71186e-011
1609
root  -69.7762 37.7661 -27.3723 -178.706 -10.7892 -179.624
RightUpLeg  -16.2716 -12.156 6.77392
RightLeg  34.8652 -8.62779 -6.68659
RightFoot  -19.0628 -0.177817 -0.724066
RightToes  6.35937e-011 1.2921e-014 -6.02303e-014
Spine  7.47985 -3.01863 8.76348
Spine1  -0.616762 -2.62714 4.02117
HEad  -5.04107 -42.6513 5.08139
LeftShoulder1  1.72105 -1.06783 -31.6049
LeftArm  23.6778 2.11224 -36.3245
LeftForeArm  3.14354 -13.0266 -13.4963
LeftHand  0.43116 -2.40055 -6.24286
RightShoulder  7.46152 9.45914 50.42
RightArm  31.3641 3.72024 16.8718
RightForeArm  5.73405 13.3191 12.9436
RightHand  0.188858 4.06782 2.04511
LeftUpLeg  -18.5742 16.4326 7.09956
LeftLeg  61.404 -0.614848 -0.648805
LeftFoot  2.53816 1.20787 -10.0321
LeftToes  3.18074e-010 1.39432e-010 -7.71186e-011
1610
root  -70.3096 38.2294 -28.6536 -178.746 -8.17238 179.47
RightUpLeg  -12.0112 -10.9151 4.53172
RightLeg  31.3384 -7.44515 -5.12754
RightFoot  -18.669 -0.0993336 0.42159
RightToes  6.35937e-011 1.2921e-014 -6.02303e-014
Spine  7.27794 -2.57762 7.84039
Spine1  -0.803204 -2.27339 3.15611
HEad  -3.63423 -42.4728 4.21202
LeftShoulder1  1.69641 -0.983602 -31.7619
LeftArm  20.6372 4.49719 -35.3031
LeftForeArm  4.0155 -11.4923 -14.4243
LeftHand  0.409934 -1.93898 -6.3438
RightShoulder  7.74167 9.95789 50.373
RightArm  39.727 3.96137 18.1543
RightForeArm  -2.22833 18.1147 9.33086
RightHand  0.237151 4.17552 2.60022
LeftUpLeg  -20.7467 16.4437 5.87351
LeftLeg  54.0946 -0.946992 -0.936573
LeftFoot  0.452994 1.07128 -10.3783
LeftToes  3.18074e-010 1.39432e-010 -7.71186e-011
1611
root  -70.7953 38.6387 -29.8794 -178.445 -5.96477 178.766
RightUpLeg  -8.16551 -9.61939 2.67917
RightLeg  27.2969 -6.39357 -3.81661
RightFoot  -18.0976 -0.0523989 1.18745
RightToes  6.35937e-011 1.2921e-014 -6.02303e-014
Spine  6.94572 -2.27377 6.57943
Spine1  -1.22136 -2.1908 2.63918
HEad  -2.86777 -42.3815 3.76572
LeftShoulder1  1.67708 -0.926675 -31.8107
LeftArm  17.6458 6.83651 -34.464
LeftForeArm  5.46043 -9.77755 -15.2922
LeftHand  0.424331 -1.88898 -6.6219
RightShoulder  7.91304 10.2572 50.3669
RightArm  44.1759 3.98523 19.0877
RightForeArm  -6.54586 21.9527 6.02275
RightHand  0.304431 4.37201 3.33359
LeftUpLeg  -22.2959 16.0136 5.09572
LeftLeg  44.0993 -0.97725 -0.624063
LeftFoot  -0.95724 0.980266 -10.7026
LeftToes  3.18074e-010 1.39432e-010 -7.71186e-011
